HIERARCHY
ROOT Hips
{
	OFFSET 0.000000 0.000000 0.000000 
	CHANNELS 6 Xposition Yposition Zposition Yrotation Xrotation Zrotation
	JOINT Spine
	{
		OFFSET 0.000000 0.072080 0.012321 
		CHANNELS 3 Xrotation Yrotation Zrotation
		JOINT Spine1
		{
			OFFSET 0.000000 0.126984 -0.001294 
			CHANNELS 3 Xrotation Yrotation Zrotation
			JOINT Spine2
			{
				OFFSET 0.000000 0.106559 -0.010096 
				CHANNELS 3 Xrotation Yrotation Zrotation
				JOINT Neck
				{
					OFFSET 0.000000 0.108417 -0.034017 
					CHANNELS 3 Xrotation Yrotation Zrotation
					JOINT Neck1
					{
						OFFSET 0.000000 0.033906 0.007241 
						CHANNELS 3 Xrotation Yrotation Zrotation
						JOINT Head
						{
							OFFSET 0.000000 0.031458 0.006707 
							CHANNELS 3 Xrotation Yrotation Zrotation
							End Site
							{
								OFFSET 0.000000 0.179920 0.000962 
							}
						}
					}
				}
				JOINT LeftShoulder
				{
					OFFSET 0.048002 0.079586 -0.029634 
					CHANNELS 3 Zrotation Xrotation Yrotation
					JOINT LeftArm
					{
						OFFSET 0.096243 -0.008695 -0.014012 
						CHANNELS 3 Zrotation Xrotation Yrotation
						JOINT LeftForeArm
						{
							OFFSET 0.216305 0.000000 0.000000 
							CHANNELS 3 Xrotation Zrotation Yrotation
							JOINT LeftHand
							{
								OFFSET 0.217764 0.000000 0.000000 
								CHANNELS 3 Zrotation Yrotation Xrotation
								JOINT LeftHandThumb1
								{
									OFFSET 0.018582 -0.007835 0.020476 
									CHANNELS 3 Zrotation Xrotation Yrotation
									JOINT LeftHandThumb2
									{
										OFFSET 0.026269 -0.007835 0.022186 
										CHANNELS 3 Zrotation Xrotation Yrotation
										JOINT LeftHandThumb3
										{
											OFFSET 0.035170 -0.010504 0.017018 
											CHANNELS 3 Zrotation Xrotation Yrotation
											End Site
											{
												OFFSET 0.020312 -0.007813 0.007813 
											}
										}
									}
								}
								JOINT LeftHandMiddle1
								{
									OFFSET 0.081749 0.004803 0.003358 
									CHANNELS 3 Zrotation Xrotation Yrotation
									JOINT LeftHandMiddle2
									{
										OFFSET 0.045251 0.000000 0.000000 
										CHANNELS 3 Zrotation Xrotation Yrotation
										JOINT LeftHandMiddle3
										{
											OFFSET 0.029009 0.000000 0.000000 
											CHANNELS 3 Zrotation Xrotation Yrotation
											End Site
											{
												OFFSET 0.017969 0.000000 0.000000 
											}
										}
									}
								}
								JOINT LeftHandIndex1
								{
									OFFSET 0.081207 0.004803 0.021137 
									CHANNELS 3 Zrotation Xrotation Yrotation
									JOINT LeftHandIndex2
									{
										OFFSET 0.043354 0.000000 0.000000 
										CHANNELS 3 Zrotation Xrotation Yrotation
										JOINT LeftHandIndex3
										{
											OFFSET 0.026493 0.000000 0.000000 
											CHANNELS 3 Zrotation Xrotation Yrotation
											End Site
											{
												OFFSET 0.019531 0.000000 0.000000 
											}
										}
									}
								}
								JOINT LeftHandRing1
								{
									OFFSET 0.080666 0.002509 -0.014652 
									CHANNELS 3 Zrotation Xrotation Yrotation
									JOINT LeftHandRing2
									{
										OFFSET 0.042541 0.000000 0.000000 
										CHANNELS 3 Zrotation Xrotation Yrotation
										JOINT LeftHandRing3
										{
											OFFSET 0.029009 0.000000 0.000000 
											CHANNELS 3 Zrotation Xrotation Yrotation
											End Site
											{
												OFFSET 0.015625 0.000000 0.000000 
											}
										}
									}
								}
								JOINT LeftHandPinky1
								{
									OFFSET 0.078227 -0.000612 -0.030993 
									CHANNELS 3 Zrotation Xrotation Yrotation
									JOINT LeftHandPinky2
									{
										OFFSET 0.028721 0.000000 0.000000 
										CHANNELS 3 Zrotation Xrotation Yrotation
										JOINT LeftHandPinky3
										{
											OFFSET 0.021963 0.000000 0.000000 
											CHANNELS 3 Zrotation Xrotation Yrotation
											End Site
											{
												OFFSET 0.022656 0.000000 0.000000 
											}
										}
									}
								}
							}
						}
					}
				}
				JOINT RightShoulder
				{
					OFFSET -0.047970 0.079586 -0.029634 
					CHANNELS 3 Zrotation Xrotation Yrotation
					JOINT RightArm
					{
						OFFSET -0.096274 -0.008695 -0.014012 
						CHANNELS 3 Zrotation Xrotation Yrotation
						JOINT RightForeArm
						{
							OFFSET -0.216305 0.000000 0.000000 
							CHANNELS 3 Xrotation Zrotation Yrotation
							JOINT RightHand
							{
								OFFSET -0.217764 0.000000 0.000000 
								CHANNELS 3 Zrotation Yrotation Xrotation
								JOINT RightHandThumb1
								{
									OFFSET -0.019670 -0.007318 0.019638 
									CHANNELS 3 Zrotation Xrotation Yrotation
									JOINT RightHandThumb2
									{
										OFFSET -0.025498 -0.008492 0.023179 
										CHANNELS 3 Zrotation Xrotation Yrotation
										JOINT RightHandThumb3
										{
											OFFSET -0.034504 -0.010705 0.016680 
											CHANNELS 3 Zrotation Xrotation Yrotation
											End Site
											{
												OFFSET -0.020312 -0.007813 0.007813 
											}
										}
									}
								}
								JOINT RightHandIndex1
								{
									OFFSET -0.081770 0.003825 0.021187 
									CHANNELS 3 Zrotation Xrotation Yrotation
									JOINT RightHandIndex2
									{
										OFFSET -0.042006 0.000000 0.000000 
										CHANNELS 3 Zrotation Xrotation Yrotation
										JOINT RightHandIndex3
										{
											OFFSET -0.026449 0.000000 0.000000 
											CHANNELS 3 Zrotation Xrotation Yrotation
											End Site
											{
												OFFSET -0.020312 0.000000 0.000000 
											}
										}
									}
								}
								JOINT RightHandMiddle1
								{
									OFFSET -0.084059 0.003825 0.003342 
									CHANNELS 3 Zrotation Xrotation Yrotation
									JOINT RightHandMiddle2
									{
										OFFSET -0.043881 0.000000 0.000000 
										CHANNELS 3 Zrotation Xrotation Yrotation
										JOINT RightHandMiddle3
										{
											OFFSET -0.029191 0.000000 0.000000 
											CHANNELS 3 Zrotation Xrotation Yrotation
											End Site
											{
												OFFSET -0.017969 0.000000 0.000000 
											}
										}
									}
								}
								JOINT RightHandRing1
								{
									OFFSET -0.081798 0.003030 -0.015127 
									CHANNELS 3 Zrotation Xrotation Yrotation
									JOINT RightHandRing2
									{
										OFFSET -0.042198 0.000000 0.000000 
										CHANNELS 3 Zrotation Xrotation Yrotation
										JOINT RightHandRing3
										{
											OFFSET -0.026497 0.000000 0.000000 
											CHANNELS 3 Zrotation Xrotation Yrotation
											End Site
											{
												OFFSET -0.017188 0.000000 0.000000 
											}
										}
									}
								}
								JOINT RightHandPinky1
								{
									OFFSET -0.077902 -0.000930 -0.030891 
									CHANNELS 3 Zrotation Xrotation Yrotation
									JOINT RightHandPinky2
									{
										OFFSET -0.028538 0.000000 0.000000 
										CHANNELS 3 Zrotation Xrotation Yrotation
										JOINT RightHandPinky3
										{
											OFFSET -0.021734 0.000000 0.000000 
											CHANNELS 3 Zrotation Xrotation Yrotation
											End Site
											{
												OFFSET -0.022656 0.000000 0.000000 
											}
										}
									}
								}
							}
						}
					}
				}
			}
		}
	}
	JOINT LeftUpLeg
	{
		OFFSET 0.075264 -0.025573 0.000000 
		CHANNELS 3 Xrotation Yrotation Zrotation
		JOINT LeftLeg
		{
			OFFSET 0.000000 -0.326016 -0.013516 
			CHANNELS 3 Xrotation Yrotation Zrotation
			JOINT LeftFoot
			{
				OFFSET 0.000098 -0.306172 -0.006623 
				CHANNELS 3 Xrotation Yrotation Zrotation
				JOINT LeftToeBase
				{
					OFFSET -0.001432 -0.095259 0.064705 
					CHANNELS 3 Xrotation Yrotation Zrotation
					End Site
					{
						OFFSET 0.000000 0.000000 0.079438 
					}
				}
			}
		}
	}
	JOINT RightUpLeg
	{
		OFFSET -0.075264 -0.025573 0.000000 
		CHANNELS 3 Xrotation Yrotation Zrotation
		JOINT RightLeg
		{
			OFFSET 0.000000 -0.326016 -0.013516 
			CHANNELS 3 Xrotation Yrotation Zrotation
			JOINT RightFoot
			{
				OFFSET 0.000098 -0.306172 -0.006623 
				CHANNELS 3 Xrotation Yrotation Zrotation
				JOINT RightToeBase
				{
					OFFSET -0.001432 -0.095259 0.064705 
					CHANNELS 3 Xrotation Yrotation Zrotation
					End Site
					{
						OFFSET 0.000025 0.000000 0.079438 
					}
				}
			}
		}
	}
}
MOTION
Frames: 4
Frame Time: 0.033333
0.084579 0.476930 0.513255 -64.166702 3.290400 9.952900 8.221700 1.306000 -4.677300 16.522301 2.185300 -9.052100 16.522200 2.185300 -9.052100 -5.047800 -15.795000 0.712100 -0.000000 0.000000 -0.000000 18.548000 -39.473801 10.091400 -8.821300 1.262800 2.967400 -18.895500 -20.554001 -17.293301 7.529700 -1.323000 -60.629501 5.973600 -1.056100 9.637600 4.610200 -1.455300 6.340000 1.166600 -0.425600 1.688300 3.650800 -3.261600 -4.251000 -23.340599 1.407200 -5.720000 -24.837999 0.825000 -4.434000 -0.000000 0.000000 0.000000 -15.733900 5.373700 -21.357401 -31.252701 0.744300 -4.142500 -0.000000 -0.000000 0.000000 -29.237499 -3.120400 4.436600 -27.406799 1.430800 -5.122100 -0.000000 0.000000 -0.000000 -24.984600 -8.958900 20.092600 -36.299099 4.062400 -8.529200 0.000000 -0.000000 -0.000000 19.356501 2.643000 -0.019500 29.162399 -22.497499 1.735500 3.574900 4.901200 66.488503 -19.691900 7.981000 -1.644900 -4.807900 -1.672600 -4.831400 -0.542600 -0.639400 0.239500 -3.141100 -3.030300 4.239300 17.611500 3.992200 19.762400 31.414000 0.386100 2.880900 -0.000000 0.000000 -0.000000 24.276899 0.139000 5.102300 25.011000 0.605500 3.449300 -0.000000 -0.000000 -0.000000 30.208599 -2.478000 -6.980300 27.383200 1.408700 5.161600 -0.000000 0.000000 0.000000 26.125900 -6.724400 -18.487200 35.902000 4.413700 9.710600 0.000000 0.000000 0.000000 -68.216103 -8.969900 17.994101 87.760902 -43.907799 12.597300 -20.988400 9.796300 -14.521800 -7.878900 2.566600 -4.951700 -57.140099 17.449800 -45.533798 111.169601 19.285101 -1.124400 -28.401199 5.984600 -17.667299 -15.816100 -4.001500 21.554800 
0.098795 0.485720 0.489027 -75.302498 6.486000 8.841000 8.065500 1.108700 -4.466000 16.194599 1.773900 -8.740100 16.194599 1.773800 -8.740100 -4.018000 -16.766399 3.581400 -0.000000 0.000000 -0.000000 14.739100 -39.836102 11.578100 -9.248900 1.579800 3.016200 -13.148600 -23.389799 -22.934900 8.165100 -1.781300 -50.769501 4.865800 -2.078000 8.675600 4.607800 -1.443500 6.378700 1.158700 -0.198800 2.452500 3.650800 -3.261600 -4.251000 -24.728600 1.549700 -5.967500 -26.225300 0.935900 -4.711500 0.000000 0.000000 -0.000000 -16.628700 5.783100 -23.031601 -32.636700 0.848200 -4.439200 -0.000000 0.000000 -0.000000 -30.705299 -3.247900 4.562700 -28.805901 1.557900 -5.317200 0.000000 0.000000 -0.000000 -26.424200 -9.535600 21.095100 -37.699501 4.272800 -8.602900 0.000000 -0.000000 0.000000 22.600401 3.025000 -1.322900 24.146000 -20.601500 -7.381800 0.300200 6.682600 61.831600 -15.231000 9.213000 -2.805700 -4.797900 -1.765400 -4.524600 -0.552100 -0.408600 -0.523600 -3.141100 -3.030300 4.239200 18.616699 4.410000 21.303200 32.812099 0.459400 3.127200 -0.000000 0.000000 -0.000000 25.676001 0.271200 5.322200 26.410999 0.692600 3.675200 0.000000 -0.000000 -0.000000 31.692400 -2.681900 -7.307600 28.781200 1.536800 5.362700 -0.000000 0.000000 0.000000 27.579599 -7.387800 -19.297600 37.291599 4.652100 9.824500 -0.000000 0.000000 -0.000000 -62.022701 -9.900600 27.567400 77.498703 -37.682301 8.787500 -19.356701 8.769600 -21.818701 -8.085000 2.927700 -4.871700 -69.502098 15.788300 -43.938599 110.543900 27.070000 0.383700 -27.473200 4.639500 -12.248100 -6.724200 -0.242900 4.554000 
0.105145 0.497006 0.464488 -87.735901 9.136400 8.175900 7.293400 0.827100 -4.350400 14.629700 1.246300 -8.492900 14.629700 1.246300 -8.492900 -3.473900 -16.950800 7.520900 -0.000000 0.000000 -0.000000 8.148300 -38.244202 10.662900 -11.070700 1.826600 3.302000 -13.874300 -24.455799 -25.152300 8.096800 -2.582600 -43.287102 6.759500 -3.545500 7.538400 4.606200 -1.439500 6.389100 1.155500 -0.127400 2.693600 3.650800 -3.261600 -4.251000 -25.165899 1.596500 -6.044700 -26.662500 0.972500 -4.798300 0.000000 0.000000 -0.000000 -16.906799 5.909200 -23.559401 -33.072899 0.882400 -4.532200 -0.000000 0.000000 -0.000000 -31.167801 -3.286400 4.602500 -29.246799 1.598100 -5.378300 -0.000000 0.000000 -0.000000 -26.875500 -9.714800 21.410900 -38.140999 4.339500 -8.625100 0.000000 -0.000000 -0.000000 24.981300 3.341300 -1.640200 22.920099 -18.306900 -13.239000 -0.465900 6.916400 54.395401 -15.506900 10.114000 -3.229400 -4.794500 -1.794800 -4.428000 -0.554400 -0.336000 -0.764200 -3.141100 -3.030300 4.239200 18.930000 4.539600 21.788300 33.252701 0.483800 3.204500 -0.000000 0.000000 -0.000000 26.117001 0.313800 5.391200 26.852301 0.721400 3.745800 0.000000 -0.000000 -0.000000 32.159698 -2.744900 -7.410700 29.221901 1.577400 5.425600 0.000000 0.000000 -0.000000 28.035601 -7.593500 -19.553101 37.729599 4.727900 9.859300 -0.000000 0.000000 -0.000000 -52.116901 -7.199700 36.388302 66.910500 -30.097000 6.054800 -17.645800 8.270200 -30.142799 -8.534500 3.227600 -4.850000 -80.542801 12.401900 -43.171799 109.817200 22.771700 -0.483200 -21.560699 2.860400 -7.228200 -4.206400 0.044900 0.711100 
0.104912 0.511499 0.442684 -100.257301 11.886800 7.633100 6.310000 0.619600 -4.025200 12.646600 0.863000 -7.813500 12.646600 0.863000 -7.813500 -3.645000 -16.045799 10.568400 -0.000000 0.000000 -0.000000 0.054200 -34.876202 8.389000 -12.293900 1.739500 3.548000 -18.387300 -21.920099 -22.116199 9.111700 -2.350400 -51.860600 6.566000 -1.285800 7.857900 4.611500 -1.448000 6.367500 1.161300 -0.263100 2.235600 3.650800 -3.261600 -4.251000 -24.334200 1.508300 -5.897600 -25.831100 0.903700 -4.632900 -0.000000 0.000000 0.000000 -16.376200 5.668000 -22.555799 -32.243500 0.817900 -4.355100 0.000000 0.000000 -0.000000 -30.288300 -3.211400 4.526900 -28.408300 1.521800 -5.261900 0.000000 -0.000000 0.000000 -26.016701 -9.371800 20.810301 -37.301498 4.212800 -8.582500 0.000000 0.000000 -0.000000 24.028799 3.128200 -1.601900 24.792500 -15.336000 -18.747900 1.834500 6.948000 54.776600 -15.641600 8.775500 -2.776900 -4.801300 -1.738100 -4.611500 -0.549800 -0.474100 -0.306800 -3.141100 -3.030300 4.239300 18.332899 4.291700 20.863800 32.414799 0.438000 3.057400 -0.000000 0.000000 0.000000 25.278400 0.231900 5.261200 26.013201 0.667300 3.611200 0.000000 0.000000 -0.000000 31.270901 -2.624500 -7.214600 28.383900 1.500300 5.305700 -0.000000 -0.000000 -0.000000 27.168400 -7.195500 -19.068800 36.896702 4.584100 9.792800 0.000000 0.000000 0.000000 -39.973301 -2.284100 41.733299 54.737801 -21.415501 3.581500 -14.071800 7.261800 -37.958099 -8.707500 3.580500 -4.559100 -87.960800 10.107000 -40.482399 105.121597 14.464200 -2.322500 -14.900700 1.188900 -3.684800 -3.552600 0.694700 0.872400 
